<svg xmlns="http://www.w3.org/2000/svg" version="1.1" xmlns:xlink="http://www.w3.org/1999/xlink" xmlns:svgjs="http://svgjs.dev/svgjs" width="1000" height="625" viewBox="0 0 1000 625"><g transform="matrix(1,0,0,1,0,0)"><svg viewBox="0 0 512 320" data-background-color="#ffffff" preserveAspectRatio="xMidYMid meet" height="625" width="1000" xmlns="http://www.w3.org/2000/svg" xmlns:xlink="http://www.w3.org/1999/xlink"><g id="tight-bounds" transform="matrix(1,0,0,1,0,0)"><svg viewBox="0 0 512 320" height="320" width="512"><g><svg></svg></g><g><svg viewBox="0 0 512 320" height="320" width="512"><g><path d="M96 160c0-88.366 71.634-160 160-160 88.366 0 160 71.634 160 160 0 88.366-71.634 160-160 160-88.366 0-160-71.634-160-160zM256 317.829c87.166 0 157.829-70.662 157.829-157.829 0-87.166-70.662-157.829-157.829-157.829-87.166 0-157.829 70.662-157.829 157.829 0 87.166 70.662 157.829 157.829 157.829z" fill="#ffdc00" fill-rule="nonzero" stroke="none" stroke-width="1" stroke-linecap="butt" stroke-linejoin="miter" stroke-miterlimit="10" stroke-dasharray="" stroke-dashoffset="0" font-family="none" font-weight="none" font-size="none" text-anchor="none" style="mix-blend-mode: normal" data-fill-palette-color="tertiary"></path></g><g transform="matrix(1,0,0,1,116.13999999999999,20.139999999999986)"><svg viewBox="0 0 279.72 279.72" height="279.72" width="279.72"><g><svg viewBox="0 0 279.72 279.72" height="279.72" width="279.72"><g><svg viewBox="0 0 279.72 279.72" height="279.72" width="279.72"><g id="textblocktransform"><svg viewBox="0 0 279.72 279.72" height="279.72" width="279.72" id="textblock"><g><svg viewBox="0 0 279.72 279.72" height="279.72" width="279.72"><g transform="matrix(1,0,0,1,40.96404558324946,104.63213965129866)"><svg viewBox="0 0 197.7919088335011 70.45572069740271" height="70.45572069740271" width="197.7919088335011"><g><svg xmlns="http://www.w3.org/2000/svg" xmlns:xlink="http://www.w3.org/1999/xlink" version="1.1" x="0" y="0" viewBox="0.5 10.800267837974143 32 11.398762849367959" enable-background="new 0 0 33 33" xml:space="preserve" height="70.45572069740271" width="197.7919088335011" class="icon-kg-0" data-fill-palette-color="accent" id="kg-0"><path d="M4.328 18.776c-0.945 0-1.712 0.766-1.712 1.712 0 0.944 0.767 1.711 1.712 1.711s1.711-0.767 1.711-1.711C6.039 19.542 5.273 18.776 4.328 18.776zM4.328 21.354c-0.478 0-0.866-0.388-0.866-0.865 0-0.479 0.388-0.865 0.866-0.865 0.478 0 0.865 0.387 0.865 0.865C5.193 20.966 4.805 21.354 4.328 21.354z" fill="#111111" data-fill-palette-color="accent"></path><path d="M19.771 19.66h-0.289v-1.326c0-0.255-0.207-0.462-0.461-0.462h-8.847c0-1.479 0-3.108 0-3.462 0-0.678-0.385-0.946-0.916-0.946-0.333 0-2.492 0-3.074 0s-1.082 1.09-1.831 2.587c0 0-1.026 0.321-2.417 0.829-0.935 0.342-0.912 1.252-0.912 1.751 0 0.234 0 0.652 0 1.029H0.731c-0.127 0-0.231 0.104-0.231 0.231v0.692c0 0.128 0.104 0.23 0.231 0.23h1.451c-0.016-0.106-0.027-0.215-0.027-0.326 0-1.199 0.975-2.174 2.173-2.174S6.5 19.289 6.5 20.488c0 0.111-0.011 0.22-0.027 0.326h7.978c-0.016-0.106-0.027-0.215-0.027-0.326 0-1.199 0.975-2.174 2.174-2.174 1.198 0 2.173 0.975 2.173 2.174 0 0.111-0.011 0.22-0.027 0.326h1.027c0.127 0 0.23-0.103 0.23-0.23v-0.692C20.001 19.765 19.898 19.66 19.771 19.66zM2.827 18.354h-1.23c0-0.502 0.192-0.753 0.192-0.753C3.135 17.518 2.827 18.354 2.827 18.354zM8.789 15.911h-3.85c0.401-0.808 0.993-1.985 1.245-1.985h2.151c0.34 0 0.454 0.122 0.454 0.484V15.911z" fill="#111111" data-fill-palette-color="accent"></path><path d="M9.116 13.284v-0.188c0-0.255-0.207-0.462-0.461-0.462H7.924c-0.255 0-0.461 0.207-0.461 0.462v0.188C8.109 13.284 8.796 13.284 9.116 13.284z" fill="#111111" data-fill-palette-color="accent"></path><path d="M16.598 18.776c-0.946 0-1.712 0.766-1.712 1.712 0 0.944 0.766 1.711 1.712 1.711 0.945 0 1.711-0.767 1.711-1.711C18.309 19.542 17.543 18.776 16.598 18.776zM16.598 21.354c-0.479 0-0.866-0.388-0.866-0.865 0-0.479 0.387-0.865 0.866-0.865 0.478 0 0.865 0.387 0.865 0.865C17.463 20.966 17.075 21.354 16.598 21.354z" fill="#111111" data-fill-palette-color="accent"></path><path d="M22.048 15.352c-0.64-0.369-1.457-0.15-1.826 0.488-0.369 0.64-0.15 1.456 0.49 1.826 0.639 0.369 1.456 0.149 1.825-0.489C22.906 16.537 22.687 15.721 22.048 15.352zM21.042 17.094c-0.324-0.188-0.435-0.6-0.248-0.923s0.6-0.434 0.923-0.247c0.323 0.187 0.434 0.6 0.247 0.923C21.778 17.17 21.365 17.279 21.042 17.094z" fill="#111111" data-fill-palette-color="accent"></path><path d="M29.59 19.707c-0.64-0.371-1.457-0.151-1.826 0.487-0.369 0.64-0.15 1.457 0.49 1.826 0.639 0.369 1.456 0.149 1.825-0.489C30.448 20.892 30.229 20.074 29.59 19.707zM28.584 21.448c-0.324-0.188-0.435-0.601-0.248-0.924 0.187-0.323 0.6-0.434 0.924-0.246 0.323 0.186 0.433 0.599 0.247 0.922C29.32 21.524 28.907 21.634 28.584 21.448z" fill="#111111" data-fill-palette-color="accent"></path><path d="M32.5 19.843l-0.876-0.76c0 0-0.805-2.59-1.736-3.128-0.304-0.175-2.505-1.445-2.884-1.664-0.379-0.22-3.993-0.181-3.993-0.181s-1.678-0.514-2.417-0.636c-0.738-0.123-1.625 1.237-1.552 1.987l0.773 0.446c0.031-0.081 0.067-0.162 0.112-0.239 0.463-0.802 1.491-1.076 2.292-0.614 0.801 0.463 1.077 1.491 0.614 2.292-0.045 0.077-0.096 0.149-0.151 0.217l4.675 2.699c0.031-0.082 0.067-0.161 0.112-0.239 0.463-0.802 1.491-1.077 2.292-0.614 0.801 0.462 1.077 1.491 0.614 2.293-0.019 0.03-0.039 0.06-0.059 0.09 0.404 0.098 0.887 0.198 0.979 0.138C31.458 21.822 32.224 20.847 32.5 19.843zM20.659 14.503c-0.208-0.12-0.673-0.389-0.673-0.389 0.293-0.311 0.511-0.337 0.511-0.337C21.324 14.229 20.868 14.624 20.659 14.503zM27.147 16.585l-3.7-2.137c1.544-0.006 3.143 0.044 3.398 0.146l1.088 0.629L27.147 16.585zM27.489 16.782l0.787-1.362 0.757 0.438c0.544 0.313 1.169 1.717 1.498 2.681L27.489 16.782zM31.541 20.685c-0.125-0.073-0.169-0.233-0.096-0.358l0.186-0.322c0.073-0.127 0.233-0.17 0.359-0.097l0.134 0.076c-0.106 0.289-0.244 0.567-0.386 0.815L31.541 20.685z" fill="#111111" data-fill-palette-color="accent"></path><path d="M14.474 17.411l3.204-5.402c0.207-0.367 0.094-0.823-0.244-1.06-0.338-0.238-0.806-0.188-1.08 0.133l-5.186 6.329H14.474z" fill="#111111" data-fill-palette-color="accent"></path><path d="M19.793 16.26c-0.049-0.152-0.212-0.234-0.363-0.186-0.152 0.05-0.234 0.212-0.186 0.362 0.076 0.235-0.053 0.487-0.287 0.563-0.234 0.075-0.486-0.054-0.563-0.287-0.076-0.234 0.053-0.487 0.287-0.563 0.152-0.049 0.235-0.212 0.186-0.364l-1.131-3.491-0.392 0.662 0.898 2.772c-0.365 0.25-0.54 0.72-0.396 1.161 0.174 0.536 0.752 0.832 1.289 0.658C19.671 17.375 19.967 16.797 19.793 16.26z" fill="#111111" data-fill-palette-color="accent"></path></svg></g></svg></g><g><path d="M31.985 101.899c0.603-1.602 0.972-3.221 1.105-4.857 0.131-1.629 0.066-3.112-0.194-4.449-0.266-1.339-0.667-2.409-1.202-3.207v0l-3.319 0.176c0.353 1.242 0.522 2.487 0.507 3.735-0.01 1.25-0.283 2.588-0.82 4.013v0c-0.594 1.577-1.521 2.834-2.781 3.772-1.258 0.931-2.771 1.467-4.539 1.608-1.768 0.141-3.673-0.173-5.717-0.942v0c-2.763-1.04-4.75-2.296-5.961-3.768-1.204-1.469-1.488-3.049-0.852-4.74v0c0.318-0.845 0.799-1.605 1.441-2.278 0.651-0.677 1.344-1.158 2.078-1.443v0l5.411 0.492 1.846-3.41-8.716-4.028c-0.9 0.497-1.845 1.466-2.834 2.909-0.994 1.434-1.751 2.842-2.271 4.224v0c-1.333 3.539-1.76 6.731-1.283 9.576 0.474 2.836 1.606 5.215 3.397 7.135 1.782 1.924 3.976 3.377 6.581 4.358v0c4.12 1.551 7.736 1.609 10.848 0.173 3.118-1.433 5.543-4.45 7.275-9.049z" fill="#ffdc00" data-fill-palette-color="primary"></path><path d="M37.603 87.216l8.101-10.722-2.464-2.292-4.226 2.155-1.517-2.185 5.339-7.068 2.535 0.838-0.389 4.407 2.265 2.168 9.74-12.893-2.482-2.217-3.561 1.225-23.907-7.022-3.553 7.137 12.094 20.124-0.204 4.129zM34.686 70.059l-5.017-7.3 8.43 2.781z" fill="#ffdc00" data-fill-palette-color="primary"></path><path d="M73.396 49.472l-1.802-3.01-3.523 0.988-3.387-4.801 2.842-2.005 1.477 1.198c1.758 1.416 3.399 2.42 4.922 3.012 1.523 0.592 3.022 0.78 4.495 0.566 1.475-0.224 2.99-0.884 4.543-1.98v0c0.6-0.424 1.146-0.878 1.636-1.365 0.489-0.477 0.836-0.908 1.043-1.293v0l-1.129-2.829-1.066 0.034c-1.443 0.036-2.843-0.024-4.199-0.181-1.356-0.157-2.786-0.505-4.289-1.045v0l-3.871-1.452-0.011-0.016c0.902-1.412 1.387-2.922 1.457-4.53 0.074-1.603-0.434-3.176-1.522-4.718v0c-1.1-1.559-2.392-2.52-3.878-2.883-1.491-0.359-3.183-0.18-5.077 0.538-1.9 0.722-4.086 1.955-6.56 3.7v0c-4.335 3.058-7.844 6.013-10.528 8.863v0l1.864 3.116 4.157-1.634 10.143 14.377-2.48 3.94 1.449 2.789zM56.803 31.479c0.124-0.104 0.322-0.252 0.591-0.443v0c0.876-0.618 1.778-0.982 2.707-1.092 0.923-0.107 1.782 0.017 2.577 0.372 0.791 0.349 1.435 0.877 1.932 1.582v0c0.657 0.931 1.098 1.779 1.324 2.543 0.226 0.765 0.28 1.519 0.161 2.263v0l-3.743 2.64z" fill="#ffdc00" data-fill-palette-color="primary"></path><path d="M119.343 30.611l-0.378-3.488-3.614-0.576-1.068-5.777 3.42-0.633 0.84 1.706c1.005 2.022 2.075 3.62 3.211 4.794 1.136 1.175 2.418 1.973 3.847 2.394 1.434 0.413 3.086 0.447 4.955 0.102v0c0.723-0.134 1.408-0.319 2.057-0.556 0.643-0.229 1.139-0.475 1.488-0.738v0l0.157-3.042-0.982-0.415c-1.326-0.571-2.572-1.211-3.739-1.92-1.167-0.71-2.319-1.624-3.458-2.743v0l-2.909-2.938-0.004-0.02c1.409-0.905 2.482-2.074 3.218-3.505 0.737-1.425 0.934-3.066 0.591-4.922v0c-0.347-1.876-1.119-3.289-2.317-4.24-1.204-0.95-2.817-1.494-4.837-1.635-2.028-0.139-4.529 0.067-7.506 0.617v0c-5.217 0.965-9.64 2.181-13.27 3.648v0l0.391 3.61 4.458 0.254 3.201 17.301-3.9 2.542 0.149 3.14zM111.795 7.327c0.157-0.043 0.397-0.094 0.722-0.154v0c1.054-0.195 2.026-0.149 2.916 0.139 0.883 0.289 1.611 0.761 2.185 1.416 0.572 0.648 0.937 1.397 1.094 2.245v0c0.207 1.12 0.254 2.075 0.139 2.864-0.115 0.789-0.381 1.497-0.8 2.122v0l-4.504 0.834z" fill="#ffdc00" data-fill-palette-color="primary"></path><path d="M141.592 3.181l4.09 2.042-1.989 18.255-3.824 0.926-0.608 3.525 26.749 2.915 1.679-9.155-3.667-0.786-3.884 5.212-8.103-1.341 0.831-7.63 2.485 0.719 6.009 1.794 1.42-6.122-5.761-0.149-0.72-0.028-3.011-0.084 0.88-8.082 7.751 0.845 1.322 5.138 3.775 1.011 1.696-9.315-26.347-2.871z" fill="#ffdc00" data-fill-palette-color="primary"></path><path d="M179.994 36.156c1.452 0.543 3.114 0.845 4.984 0.904 1.864 0.057 3.639-0.348 5.324-1.214 1.685-0.867 2.918-2.345 3.7-4.434v0c0.558-1.49 0.616-2.944 0.175-4.362-0.444-1.411-1.123-2.684-2.037-3.818-0.906-1.138-2.113-2.471-3.621-4v0c-0.962-0.986-1.699-1.769-2.209-2.349-0.506-0.571-0.89-1.143-1.15-1.715-0.261-0.573-0.304-1.093-0.129-1.56v0c0.284-0.758 0.754-1.265 1.412-1.523 0.662-0.249 1.45-0.202 2.366 0.141v0c0.789 0.295 1.52 0.767 2.192 1.414 0.681 0.643 1.098 1.318 1.251 2.023v0l-0.466 3.755 3.418 2.003c0.336-0.724 0.977-2.092 1.925-4.106 0.946-2.007 1.458-3.118 1.539-3.332v0c-0.242-0.429-0.773-0.944-1.592-1.546-0.819-0.601-1.738-1.183-2.758-1.745-1.023-0.556-1.929-0.981-2.719-1.277v0c-1.932-0.723-3.813-1.024-5.643-0.903-1.833 0.127-3.446 0.679-4.841 1.655-1.394 0.975-2.413 2.322-3.055 4.038v0c-0.577 1.54-0.666 3.001-0.268 4.381 0.398 1.38 1.026 2.605 1.885 3.675 0.855 1.061 1.998 2.295 3.43 3.702v0c0.933 0.911 1.643 1.648 2.13 2.211 0.49 0.558 0.862 1.121 1.116 1.692 0.254 0.57 0.286 1.111 0.095 1.623v0c-0.151 0.404-0.456 0.736-0.913 0.997-0.461 0.252-1.001 0.396-1.619 0.43-0.609 0.031-1.217-0.067-1.823-0.293v0c-0.903-0.338-1.728-0.787-2.475-1.348-0.748-0.56-1.239-1.133-1.474-1.717v0l0.592-4.292-3.511-2.016-3.669 7.61c0.356 0.76 1.286 1.622 2.789 2.588 1.512 0.962 3.394 1.864 5.649 2.708z" fill="#ffdc00" data-fill-palette-color="primary"></path><path d="M206.754 50.808c1.412 0.968 2.897 1.711 4.453 2.231 1.551 0.515 3.007 0.806 4.367 0.872 1.364 0.06 2.498-0.074 3.402-0.403v0l0.619-3.265c-1.291 0.047-2.54-0.086-3.747-0.398-1.211-0.307-2.446-0.891-3.702-1.753v0c-1.39-0.953-2.39-2.153-3-3.6-0.604-1.444-0.764-3.041-0.48-4.791 0.284-1.75 1.044-3.526 2.278-5.328v0c1.669-2.436 3.363-4.066 5.08-4.891 1.714-0.82 3.316-0.719 4.806 0.302v0c0.745 0.511 1.368 1.158 1.869 1.943 0.502 0.794 0.804 1.581 0.906 2.362v0l-1.768 5.138 2.873 2.606 5.988-7.505c-0.268-0.993-0.984-2.141-2.149-3.446-1.156-1.307-2.342-2.378-3.56-3.213v0c-3.12-2.138-6.118-3.314-8.995-3.528-2.867-0.216-5.447 0.316-7.739 1.598-2.294 1.272-4.228 3.056-5.801 5.353v0c-2.488 3.631-3.406 7.129-2.754 10.494 0.649 3.37 3 6.444 7.054 9.222z" fill="#ffdc00" data-fill-palette-color="primary"></path><path d="M240.276 48.624l-9.614 7.73c-2.595 2.087-4.123 4.167-4.584 6.241-0.455 2.07-0.297 3.945 0.475 5.626 0.767 1.675 1.873 3.411 3.318 5.208v0c2.539 3.157 5.302 4.884 8.291 5.18 2.989 0.296 6.24-0.943 9.754-3.716v0l8.371-6.614 3.512 1.964 2.881-1.824-8.282-10.299-2.925 1.768 1.19 4.142-9.386 7.547c-1.749 1.407-3.345 2.084-4.788 2.033-1.447-0.056-2.694-0.736-3.741-2.039v0c-1.17-1.455-1.652-2.953-1.447-4.494 0.205-1.531 1.24-3.047 3.105-4.547v0l9.267-7.451 3.506 1.956 2.951-1.737-10.189-12.671-3.052 1.61z" fill="#ffdc00" data-fill-palette-color="primary"></path><path d="M265.611 80.459l0.11 4.57-17.061 6.791-2.609-2.945-3.399 1.113 9.951 25 8.875-2.803-1.023-3.609-6.424-0.991-2.61-7.788 7.131-2.838 0.529 2.532 1.229 6.15 6.073-1.612-2.565-5.16-0.313-0.649-1.336-2.7 7.554-3.007 2.883 7.244-3.921 3.574 0.874 3.809 9.025-2.863-9.8-24.624z" fill="#ffdc00" data-fill-palette-color="primary"></path><path d="M13.08 188.627l1.145-0.244-0.264-2.673 5.448-1.819 0.769 2.302-3.055 3.366c-0.933 1.015-1.591 2.013-1.975 2.994-0.385 0.974-0.414 1.954-0.085 2.938v0c0.186 0.556 0.453 1.057 0.801 1.503v0l0.965-0.11-0.019-0.473c-0.017-0.584 0.051-1.115 0.204-1.592 0.149-0.469 0.371-0.941 0.667-1.417 0.298-0.469 0.777-1.162 1.438-2.079v0l2.511-3.494 0.01-0.003c0.55 0.712 1.17 1.269 1.859 1.671 0.682 0.405 1.37 0.655 2.063 0.751 0.689 0.104 1.324 0.059 1.905-0.136v0c1.471-0.491 2.328-1.424 2.573-2.799 0.251-1.377 0.024-3.121-0.681-5.231v0c-0.295-0.882-0.658-1.788-1.089-2.717-0.425-0.931-0.939-1.971-1.543-3.12v0l-1.061 0.205 0.353 2.398-12.977 4.334-1.363-2.008-1.027 0.183zM27.724 181.114c0.032 0.075 0.107 0.256 0.225 0.543 0.12 0.294 0.243 0.633 0.371 1.017v0c0.258 0.774 0.32 1.489 0.184 2.146-0.136 0.657-0.436 1.226-0.901 1.708-0.471 0.484-1.068 0.847-1.79 1.088v0c-0.876 0.293-1.691 0.277-2.446-0.047-0.753-0.317-1.378-0.805-1.875-1.463v0l-0.875-2.619z" fill="#ffdc00" data-fill-palette-color="primary"></path><path d="M31.817 192.697l0.614 2.541-12.567 6.274-1.631-1.796-0.973 0.361 6.337 12.693 4.103-1.585-0.357-1.122-3.487 0.215-3.089-6.188 6.089-3.039 1.712 3.428-1.978 1.519 0.692 0.977 5.079-2.005-0.772-1.095-1.764 0.225-1.811-3.628 5.953-2.972 2.94 5.89-2.434 1.848 0.384 1.176 4.193-1.607-6.215-12.449z" fill="#ffdc00" data-fill-palette-color="primary"></path><path d="M27.791 219.989c0.589 0.896 1.327 1.62 2.215 2.174 0.898 0.556 1.844 0.853 2.838 0.894 1.004 0.042 1.939-0.222 2.807-0.792v0c0.625-0.411 1.063-0.929 1.315-1.554 0.245-0.621 0.376-1.263 0.391-1.927 0.012-0.669-0.032-1.528-0.132-2.575v0c-0.087-1.016-0.127-1.832-0.121-2.45 0.002-0.623 0.116-1.222 0.342-1.798 0.226-0.576 0.618-1.048 1.176-1.414v0c0.732-0.481 1.417-0.649 2.054-0.503 0.631 0.15 1.152 0.538 1.563 1.163v0c0.189 0.287 0.314 0.613 0.375 0.976 0.067 0.359 0.078 0.695 0.032 1.007-0.045 0.312-0.115 0.555-0.209 0.731v0l-2.037 1.762 0.612 1.243c0.351-0.19 0.921-0.501 1.711-0.931 0.79-0.43 1.375-0.755 1.757-0.973v0c0.163-1.446-0.171-2.8-1-4.062v0c-0.518-0.789-1.169-1.422-1.951-1.9-0.782-0.478-1.627-0.726-2.533-0.743-0.901-0.021-1.777 0.248-2.628 0.807v0c-0.732 0.481-1.249 1.075-1.551 1.782-0.308 0.71-0.468 1.429-0.483 2.157-0.02 0.731 0.024 1.65 0.131 2.757v0c0.073 0.896 0.109 1.614 0.109 2.155 0 0.54-0.084 1.051-0.251 1.532-0.171 0.476-0.471 0.854-0.899 1.136v0c-0.546 0.359-1.093 0.521-1.641 0.486-0.548-0.035-1.05-0.205-1.509-0.509-0.458-0.304-0.833-0.679-1.125-1.124v0c-0.337-0.513-0.532-1.062-0.587-1.647-0.06-0.582 0-1.093 0.178-1.533v0l1.889-1.895-0.614-1.303-3.455 2.053c-0.126 0.655-0.087 1.42 0.117 2.295 0.209 0.871 0.581 1.712 1.114 2.523z" fill="#ffdc00" data-fill-palette-color="primary"></path><path d="M38.934 234.476c0.591 0.692 1.27 1.265 2.037 1.718 0.767 0.453 1.53 0.786 2.288 0.999 0.763 0.209 1.458 0.307 2.086 0.294v0l0.492-1.058c-0.89-0.109-1.767-0.362-2.629-0.761-0.863-0.398-1.578-0.931-2.147-1.597v0c-0.735-0.862-1.19-1.851-1.365-2.97-0.17-1.113-0.007-2.267 0.489-3.461 0.495-1.185 1.356-2.3 2.582-3.346v0c1.113-0.95 2.233-1.604 3.362-1.965 1.128-0.36 2.167-0.431 3.115-0.212 0.958 0.219 1.754 0.701 2.389 1.444v0c0.556 0.651 0.93 1.293 1.124 1.925 0.189 0.627 0.227 1.216 0.111 1.766v0l-1.957 2.442 0.662 1.057 3.806-2.69c-0.042-0.797-0.263-1.601-0.662-2.412-0.395-0.806-0.914-1.586-1.558-2.34v0c-1.3-1.523-2.756-2.487-4.368-2.892-1.608-0.4-3.174-0.371-4.698 0.087-1.533 0.457-2.866 1.169-3.999 2.136v0c-1.359 1.16-2.284 2.449-2.774 3.869-0.495 1.424-0.587 2.827-0.276 4.21 0.311 1.392 0.941 2.645 1.89 3.757z" fill="#ffdc00" data-fill-palette-color="primary"></path><path d="M57.878 231.122l-5.985 6.963c-1.731 2.014-2.43 3.814-2.095 5.4 0.344 1.585 1.27 3.026 2.778 4.322v0c1.82 1.564 3.563 2.241 5.23 2.029 1.667-0.212 3.34-1.28 5.022-3.205v0l5.656-6.471 2.099 1.11 0.807-0.706-5.061-4.35-0.799 0.713 1.557 2.112-5.897 6.798c-1.17 1.341-2.333 2.083-3.489 2.228-1.16 0.15-2.292-0.25-3.396-1.199v0c-1.135-0.976-1.729-2.1-1.782-3.372-0.063-1.272 0.532-2.636 1.785-4.093v0l5.649-6.571 2.137 1.143 0.792-0.719-5.751-4.944-0.83 0.687z" fill="#ffdc00" data-fill-palette-color="primary"></path><path d="M71.537 241.872l1.846 1.853-7.474 11.891-2.328-0.686-0.643 0.814 12.012 7.549 2.681-3.486-0.888-0.773-2.867 1.996-5.856-3.68 3.621-5.762 3.245 2.039-0.9 2.325 1.099 0.475 3.297-4.353-1.229-0.533-1.39 1.109-3.433-2.158 3.541-5.633 5.573 3.503-1.119 2.844 0.94 0.805 2.746-3.553-11.78-7.404z" fill="#ffdc00" data-fill-palette-color="primary"></path><path d="M91.482 271.077c1.735 0.672 3.391 0.877 4.968 0.613 1.573-0.272 2.941-0.921 4.104-1.945 1.169-1.022 2.049-2.293 2.639-3.814v0c0.594-1.534 0.839-3.069 0.733-4.607-0.108-1.531-0.584-2.905-1.429-4.121-0.841-1.208-2.021-2.106-3.542-2.696v0c-1.703-0.66-3.329-0.878-4.877-0.653-1.547 0.225-2.91 0.85-4.088 1.875-1.182 1.017-2.096 2.358-2.741 4.024v0c-0.606 1.565-0.844 3.111-0.713 4.636 0.125 1.523 0.613 2.876 1.464 4.06 0.85 1.183 2.011 2.059 3.482 2.628zM97.837 255.516c1.182 0.458 2.021 1.221 2.518 2.288 0.495 1.074 0.695 2.283 0.601 3.628-0.086 1.34-0.383 2.668-0.892 3.981v0c-0.723 1.867-1.685 3.266-2.884 4.196-1.199 0.931-2.704 1.045-4.514 0.344v0c-1.188-0.46-2.032-1.21-2.533-2.251-0.501-1.04-0.708-2.223-0.621-3.548 0.087-1.325 0.392-2.664 0.916-4.015v0c1.683-4.344 4.153-5.884 7.409-4.623z" fill="#ffdc00" data-fill-palette-color="primary"></path><path d="M107.428 259.09l2.352 1.211-2.827 13.634-2.42 0.169-0.318 0.987 6.495 1.347 0.386-1.066-2.409-0.985 2.402-11.585 6.26 15.435 2.175 0.018 3.204-15.456 2.394-0.041 0.394-1.003-6.496-1.346-0.383 1.005 2.415 1.099-2.416 11.654-6.052-15.092-4.792-0.994z" fill="#ffdc00" data-fill-palette-color="primary"></path><path d="M131.879 263.294l2.544 0.605-0.104 14.045-2.341 0.64-0.119 1.031 14.187 0.105 0.447-4.375-1.162-0.191-1.389 3.206-6.916-0.052 0.05-6.805 3.833 0.029 0.457 2.45 1.184-0.173 0.516-5.437-1.326 0.193-0.599 1.674-4.055-0.03 0.049-6.653 6.583 0.048 0.544 3.008 1.222 0.191 0.468-4.466-13.913-0.103z" fill="#ffdc00" data-fill-palette-color="primary"></path><path d="M146.382 263.4l2.114 0.298 8.006 15.107 2.049-0.683 3.707-16.403 1.76-0.776-0.046-1.066-6.299 0.878 0.046 1.066 2.605 0.229-2.75 12.726-6.022-11.565 2.281-0.849-0.016-1.07-7.441 1.037z" fill="#ffdc00" data-fill-palette-color="primary"></path><path d="M165.584 260.572l2.611-0.147 3.912 13.49-2.06 1.282 0.181 1.021 13.625-3.952-0.822-4.321-1.167 0.15-0.415 3.468-6.643 1.927-1.896-6.536 3.681-1.068 1.138 2.218 1.085-0.504-1.059-5.357-1.216 0.563-0.095 1.775-3.895 1.13-1.853-6.39 6.322-1.834 1.381 2.727 1.225-0.167-0.827-4.413-13.363 3.876z" fill="#ffdc00" data-fill-palette-color="primary"></path><path d="M194.154 267.829l-0.358-1.115-2.633 0.533-2.361-5.235 2.212-0.998 3.657 2.699c1.104 0.826 2.164 1.379 3.179 1.661 1.008 0.285 1.986 0.214 2.932-0.213v0c0.535-0.241 1.006-0.557 1.414-0.948v0l-0.207-0.95-0.469 0.067c-0.579 0.076-1.114 0.063-1.604-0.041-0.482-0.101-0.974-0.274-1.478-0.521-0.497-0.249-1.235-0.656-2.214-1.22v0l-3.729-2.145-0.004-0.009c0.652-0.62 1.144-1.292 1.474-2.018 0.334-0.72 0.513-1.429 0.538-2.129 0.034-0.696-0.075-1.323-0.328-1.882v0c-0.637-1.413-1.653-2.172-3.045-2.276-1.396-0.11-3.107 0.292-5.135 1.207v0c-0.848 0.382-1.712 0.835-2.594 1.358-0.884 0.517-1.866 1.134-2.947 1.851v0l0.311 1.035 2.35-0.594 5.625 12.472-1.859 1.559 0.286 1.003zM185.197 254.02c0.071-0.039 0.244-0.132 0.518-0.278 0.281-0.149 0.605-0.306 0.974-0.472v0c0.744-0.335 1.449-0.469 2.116-0.4 0.667 0.069 1.264 0.31 1.79 0.723 0.529 0.419 0.951 0.976 1.264 1.671v0c0.38 0.842 0.447 1.655 0.201 2.438-0.239 0.781-0.661 1.452-1.266 2.013v0l-2.516 1.135z" fill="#ffdc00" data-fill-palette-color="primary"></path><path d="M195.419 249.34l1.943-0.549 8.843 4.647 2.893 4.511-1.415 1.689 0.438 0.944 5.957-3.821-0.486-1.021-2.181 0.833-3.128-4.877-0.477-9.677 1.189-1.387-0.454-0.97-5.235 3.358 0.454 0.97 2.47-0.888 0.557 7.704-6.956-3.671 1.572-1.633-0.429-0.986-5.975 3.832z" fill="#ffdc00" data-fill-palette-color="primary"></path><path d="M232.046 242.097l-0.715-0.926-2.296 1.393-3.995-4.127 1.743-1.688 4.356 1.301c1.319 0.403 2.503 0.565 3.553 0.486 1.045-0.074 1.941-0.472 2.687-1.194v0c0.421-0.408 0.758-0.865 1.009-1.371v0l-0.516-0.823-0.418 0.222c-0.519 0.268-1.027 0.436-1.525 0.504-0.487 0.068-1.009 0.072-1.566 0.011-0.552-0.066-1.384-0.199-2.496-0.398v0l-4.236-0.755-0.007-0.007c0.404-0.804 0.639-1.603 0.704-2.399 0.07-0.79-0.002-1.518-0.215-2.184-0.204-0.666-0.519-1.219-0.946-1.66v0c-1.078-1.114-2.291-1.484-3.636-1.111-1.35 0.369-2.825 1.327-4.423 2.875v0c-0.668 0.647-1.328 1.366-1.98 2.156-0.656 0.786-1.372 1.699-2.147 2.74v0l0.644 0.869 2.01-1.355 9.516 9.829-1.221 2.097 0.609 0.847zM218.942 232.138c0.053-0.061 0.185-0.207 0.393-0.437 0.214-0.235 0.466-0.493 0.756-0.774v0c0.586-0.567 1.205-0.932 1.856-1.093 0.651-0.161 1.294-0.136 1.929 0.075 0.64 0.215 1.225 0.597 1.755 1.143v0c0.642 0.664 0.981 1.406 1.015 2.227 0.039 0.816-0.131 1.59-0.509 2.323v0l-1.984 1.92z" fill="#ffdc00" data-fill-palette-color="primary"></path><path d="M245.796 227.121c1.128-1.48 1.784-3.014 1.969-4.601 0.176-1.587-0.067-3.081-0.727-4.484-0.656-1.407-1.633-2.605-2.931-3.594v0c-1.308-0.997-2.715-1.659-4.222-1.985-1.501-0.322-2.953-0.246-4.356 0.227-1.394 0.472-2.585 1.356-3.574 2.654v0c-1.107 1.453-1.768 2.954-1.983 4.503-0.214 1.549 0.007 3.032 0.666 4.448 0.648 1.418 1.683 2.669 3.103 3.752v0c1.335 1.018 2.754 1.675 4.256 1.972 1.498 0.303 2.934 0.21 4.306-0.278 1.372-0.488 2.537-1.36 3.493-2.614zM232.614 216.692c0.768-1.008 1.734-1.602 2.898-1.783 1.169-0.177 2.386-0.033 3.651 0.431 1.264 0.455 2.456 1.109 3.577 1.963v0c1.592 1.214 2.669 2.526 3.229 3.936 0.561 1.411 0.253 2.888-0.924 4.432v0c-0.772 1.013-1.728 1.616-2.866 1.808-1.138 0.192-2.332 0.062-3.581-0.39-1.249-0.452-2.45-1.117-3.602-1.995v0c-3.705-2.824-4.499-5.624-2.382-8.402z" fill="#ffdc00" data-fill-palette-color="primary"></path><path d="M252.639 217.049l3.072-5.776-0.92-0.661-1.756 2.009-3.138-3.272 2.749-5.169 4.453 0.65-0.442 2.467 0.83 0.636 3.38-6.356-0.929-0.643-1.438 1.411-16.683-2.698-0.604 2.061 10.872 12.55-0.295 2.191zM248.885 208.215l-4.949-5.575 7.261 1.227z" fill="#ffdc00" data-fill-palette-color="primary"></path><path d="M264.815 191.146c0.75-2.166 0.992-4.14 0.725-5.924-0.258-1.787-0.911-3.291-1.959-4.509-1.043-1.21-2.345-2.086-3.905-2.627v0c-1.478-0.512-2.911-0.68-4.299-0.504-1.396 0.18-2.706 0.85-3.928 2.01-1.229 1.158-2.248 2.906-3.058 5.244v0c-0.616 1.777-1.181 4.11-1.697 6.999v0l0.96 0.472 1.18-2.139 12.87 4.459-0.062 2.526 0.912 0.519zM249.077 187.428c0.09-0.361 0.26-0.905 0.512-1.632v0c0.543-1.567 1.324-2.78 2.342-3.64 1.025-0.858 2.188-1.364 3.49-1.52 1.296-0.157 2.635 0.003 4.018 0.482v0c1.217 0.421 2.229 1.061 3.037 1.919 0.809 0.858 1.323 1.907 1.543 3.146 0.22 1.239 0.068 2.613-0.454 4.123v0l-0.662 1.911z" fill="#ffdc00" data-fill-palette-color="primary"></path><path d="M1.136 145.646c0-6.063 4.915-10.978 10.978-10.978 6.063 0 10.978 4.915 10.977 10.978 0 6.063-4.915 10.978-10.977 10.978-6.063 0-10.978-4.915-10.978-10.978z" fill="#ffdc00" data-fill-palette-color="primary"></path><path d="M255.704 145.646c0-6.063 4.915-10.978 10.978-10.978 6.063 0 10.978 4.915 10.978 10.978 0 6.063-4.915 10.978-10.978 10.978-6.063 0-10.978-4.915-10.978-10.978z" fill="#ffdc00" data-fill-palette-color="primary"></path></g></svg></g></svg></g></svg></g></svg></g></svg></g></svg></g><defs></defs></svg><rect width="512" height="320" fill="none" stroke="none" visibility="hidden"></rect></g></svg></g></svg>